<svg xmlns="http://www.w3.org/2000/svg" viewBox="0 0 1440 144" preserveAspectRatio="xMidYMid slice" role="img" aria-label="The chamber, electric hex"><defs><filter id="hg" x="-4%" y="-25%" width="108%" height="150%"><feGaussianBlur stdDeviation="1.0" result="b"/><feMerge><feMergeNode in="b"/><feMergeNode in="SourceGraphic"/></feMerge></filter></defs><g filter="url(#hg)"><path d="M0.0 -27.0 L-13.5 -3.6 L-40.5 -3.6 L-54.0 -27.0 L-40.5 -50.4 L-13.5 -50.4 Z" fill="rgb(22,41,98)" fill-opacity="0.24" stroke="rgb(76,124,255)" stroke-opacity="0.53" stroke-width="1.4"/><path d="M0.0 19.8 L-13.5 43.1 L-40.5 43.1 L-54.0 19.8 L-40.5 -3.6 L-13.5 -3.6 Z" fill="rgb(44,78,163)" fill-opacity="0.40" stroke="rgb(119,163,255)" stroke-opacity="0.68" stroke-width="1.4"/><circle cx="-27.0" cy="19.8" r="3.1" fill="rgb(136,180,255)" fill-opacity="0.80"/><path d="M0.0 66.5 L-13.5 89.9 L-40.5 89.9 L-54.0 66.5 L-40.5 43.1 L-13.5 43.1 Z" fill="rgb(13,27,72)" fill-opacity="0.18" stroke="rgb(45,96,255)" stroke-opacity="0.43" stroke-width="1.4"/><path d="M0.0 113.3 L-13.5 136.7 L-40.5 136.7 L-54.0 113.3 L-40.5 89.9 L-13.5 89.9 Z" fill="rgb(32,57,127)" fill-opacity="0.31" stroke="rgb(97,143,255)" stroke-opacity="0.61" stroke-width="1.4"/><circle cx="-27.0" cy="113.3" r="2.8" fill="rgb(124,170,255)" fill-opacity="0.72"/><path d="M0.0 160.1 L-13.5 183.4 L-40.5 183.4 L-54.0 160.1 L-40.5 136.7 L-13.5 136.7 Z" fill="rgb(31,56,125)" fill-opacity="0.31" stroke="rgb(96,142,255)" stroke-opacity="0.60" stroke-width="1.4"/><circle cx="-27.0" cy="160.1" r="2.8" fill="rgb(124,169,255)" fill-opacity="0.71"/><path d="M40.5 -3.6 L27.0 19.8 L0.0 19.8 L-13.5 -3.6 L-0.0 -27.0 L27.0 -27.0 Z" fill="rgb(29,53,119)" fill-opacity="0.29" stroke="rgb(93,139,255)" stroke-opacity="0.59" stroke-width="1.4"/><circle cx="13.5" cy="-3.6" r="2.7" fill="rgb(121,167,255)" fill-opacity="0.70"/><path d="M40.5 43.1 L27.0 66.5 L0.0 66.5 L-13.5 43.1 L-0.0 19.8 L27.0 19.8 Z" fill="rgb(66,112,223)" fill-opacity="0.54" stroke="rgb(147,188,255)" stroke-opacity="0.78" stroke-width="1.4"/><circle cx="13.5" cy="43.1" r="3.6" fill="rgb(152,194,255)" fill-opacity="0.90"/><path d="M40.5 89.9 L27.0 113.3 L0.0 113.3 L-13.5 89.9 L-0.0 66.5 L27.0 66.5 Z" fill="rgb(72,122,240)" fill-opacity="0.59" stroke="rgb(154,195,255)" stroke-opacity="0.80" stroke-width="1.4"/><circle cx="13.5" cy="89.9" r="3.7" fill="rgb(156,197,255)" fill-opacity="0.93"/><path d="M40.5 136.7 L27.0 160.1 L0.0 160.1 L-13.5 136.7 L-0.0 113.3 L27.0 113.3 Z" fill="rgb(27,50,114)" fill-opacity="0.28" stroke="rgb(89,136,255)" stroke-opacity="0.58" stroke-width="1.4"/><circle cx="13.5" cy="136.7" r="2.6" fill="rgb(119,166,255)" fill-opacity="0.68"/><path d="M81.0 -27.0 L67.5 -3.6 L40.5 -3.6 L27.0 -27.0 L40.5 -50.4 L67.5 -50.4 Z" fill="rgb(20,39,94)" fill-opacity="0.23" stroke="rgb(72,120,255)" stroke-opacity="0.52" stroke-width="1.4"/><path d="M81.0 19.8 L67.5 43.1 L40.5 43.1 L27.0 19.8 L40.5 -3.6 L67.5 -3.6 Z" fill="rgb(19,37,92)" fill-opacity="0.23" stroke="rgb(70,118,255)" stroke-opacity="0.51" stroke-width="1.4"/><path d="M81.0 66.5 L67.5 89.9 L40.5 89.9 L27.0 66.5 L40.5 43.1 L67.5 43.1 Z" fill="rgb(10,22,65)" fill-opacity="0.16" stroke="rgb(27,80,255)" stroke-opacity="0.37" stroke-width="1.4"/><path d="M81.0 113.3 L67.5 136.7 L40.5 136.7 L27.0 113.3 L40.5 89.9 L67.5 89.9 Z" fill="rgb(12,26,72)" fill-opacity="0.18" stroke="rgb(43,95,255)" stroke-opacity="0.42" stroke-width="1.4"/><path d="M81.0 160.1 L67.5 183.4 L40.5 183.4 L27.0 160.1 L40.5 136.7 L67.5 136.7 Z" fill="rgb(32,58,128)" fill-opacity="0.32" stroke="rgb(99,144,255)" stroke-opacity="0.61" stroke-width="1.4"/><circle cx="54.0" cy="160.1" r="2.8" fill="rgb(125,170,255)" fill-opacity="0.72"/><path d="M121.5 -3.6 L108.0 19.8 L81.0 19.8 L67.5 -3.6 L81.0 -27.0 L108.0 -27.0 Z" fill="rgb(10,22,64)" fill-opacity="0.16" stroke="rgb(20,73,255)" stroke-opacity="0.34" stroke-width="1.4"/><path d="M121.5 43.1 L108.0 66.5 L81.0 66.5 L67.5 43.1 L81.0 19.8 L108.0 19.8 Z" fill="rgb(22,41,98)" fill-opacity="0.24" stroke="rgb(75,123,255)" stroke-opacity="0.53" stroke-width="1.4"/><path d="M121.5 89.9 L108.0 113.3 L81.0 113.3 L67.5 89.9 L81.0 66.5 L108.0 66.5 Z" fill="rgb(46,80,166)" fill-opacity="0.41" stroke="rgb(121,164,255)" stroke-opacity="0.69" stroke-width="1.4"/><circle cx="94.5" cy="89.9" r="3.2" fill="rgb(137,181,255)" fill-opacity="0.80"/><path d="M121.5 136.7 L108.0 160.1 L81.0 160.1 L67.5 136.7 L81.0 113.3 L108.0 113.3 Z" fill="rgb(18,36,89)" fill-opacity="0.22" stroke="rgb(67,116,255)" stroke-opacity="0.50" stroke-width="1.4"/><path d="M162.0 -27.0 L148.5 -3.6 L121.5 -3.6 L108.0 -27.0 L121.5 -50.4 L148.5 -50.4 Z" fill="rgb(10,22,64)" fill-opacity="0.16" stroke="rgb(21,74,255)" stroke-opacity="0.35" stroke-width="1.4"/><path d="M162.0 19.8 L148.5 43.1 L121.5 43.1 L108.0 19.8 L121.5 -3.6 L148.5 -3.6 Z" fill="rgb(50,88,180)" fill-opacity="0.44" stroke="rgb(128,171,255)" stroke-opacity="0.71" stroke-width="1.4"/><circle cx="135.0" cy="19.8" r="3.3" fill="rgb(141,184,255)" fill-opacity="0.83"/><path d="M162.0 66.5 L148.5 89.9 L121.5 89.9 L108.0 66.5 L121.5 43.1 L148.5 43.1 Z" fill="rgb(17,34,85)" fill-opacity="0.21" stroke="rgb(62,112,255)" stroke-opacity="0.49" stroke-width="1.4"/><path d="M162.0 113.3 L148.5 136.7 L121.5 136.7 L108.0 113.3 L121.5 89.9 L148.5 89.9 Z" fill="rgb(15,31,80)" fill-opacity="0.20" stroke="rgb(57,107,255)" stroke-opacity="0.47" stroke-width="1.4"/><path d="M162.0 160.1 L148.5 183.4 L121.5 183.4 L108.0 160.1 L121.5 136.7 L148.5 136.7 Z" fill="rgb(64,109,218)" fill-opacity="0.53" stroke="rgb(145,186,255)" stroke-opacity="0.77" stroke-width="1.4"/><circle cx="135.0" cy="160.1" r="3.6" fill="rgb(151,192,255)" fill-opacity="0.89"/><path d="M202.5 -3.6 L189.0 19.8 L162.0 19.8 L148.5 -3.6 L162.0 -27.0 L189.0 -27.0 Z" fill="rgb(17,33,84)" fill-opacity="0.21" stroke="rgb(61,110,255)" stroke-opacity="0.48" stroke-width="1.4"/><path d="M202.5 43.1 L189.0 66.5 L162.0 66.5 L148.5 43.1 L162.0 19.8 L189.0 19.8 Z" fill="rgb(11,24,68)" fill-opacity="0.17" stroke="rgb(36,88,255)" stroke-opacity="0.40" stroke-width="1.4"/><path d="M202.5 89.9 L189.0 113.3 L162.0 113.3 L148.5 89.9 L162.0 66.5 L189.0 66.5 Z" fill="rgb(46,81,168)" fill-opacity="0.41" stroke="rgb(122,165,255)" stroke-opacity="0.69" stroke-width="1.4"/><circle cx="175.5" cy="89.9" r="3.2" fill="rgb(138,181,255)" fill-opacity="0.81"/><path d="M202.5 136.7 L189.0 160.1 L162.0 160.1 L148.5 136.7 L162.0 113.3 L189.0 113.3 Z" fill="rgb(65,111,221)" fill-opacity="0.54" stroke="rgb(146,188,255)" stroke-opacity="0.77" stroke-width="1.4"/><circle cx="175.5" cy="136.7" r="3.6" fill="rgb(152,193,255)" fill-opacity="0.90"/><path d="M243.0 -27.0 L229.5 -3.6 L202.5 -3.6 L189.0 -27.0 L202.5 -50.4 L229.5 -50.4 Z" fill="rgb(37,66,143)" fill-opacity="0.35" stroke="rgb(108,153,255)" stroke-opacity="0.64" stroke-width="1.4"/><circle cx="216.0" cy="-27.0" r="2.9" fill="rgb(130,175,255)" fill-opacity="0.75"/><path d="M243.0 19.8 L229.5 43.1 L202.5 43.1 L189.0 19.8 L202.5 -3.6 L229.5 -3.6 Z" fill="rgb(23,44,103)" fill-opacity="0.26" stroke="rgb(80,128,255)" stroke-opacity="0.55" stroke-width="1.4"/><path d="M243.0 66.5 L229.5 89.9 L202.5 89.9 L189.0 66.5 L202.5 43.1 L229.5 43.1 Z" fill="rgb(15,30,78)" fill-opacity="0.19" stroke="rgb(53,104,255)" stroke-opacity="0.46" stroke-width="1.4"/><path d="M243.0 113.3 L229.5 136.7 L202.5 136.7 L189.0 113.3 L202.5 89.9 L229.5 89.9 Z" fill="rgb(10,22,64)" fill-opacity="0.16" stroke="rgb(16,70,255)" stroke-opacity="0.33" stroke-width="1.4"/><path d="M243.0 160.1 L229.5 183.4 L202.5 183.4 L189.0 160.1 L202.5 136.7 L229.5 136.7 Z" fill="rgb(23,44,103)" fill-opacity="0.26" stroke="rgb(80,128,255)" stroke-opacity="0.55" stroke-width="1.4"/><path d="M283.5 -3.6 L270.0 19.8 L243.0 19.8 L229.5 -3.6 L243.0 -27.0 L270.0 -27.0 Z" fill="rgb(15,31,80)" fill-opacity="0.20" stroke="rgb(57,107,255)" stroke-opacity="0.47" stroke-width="1.4"/><path d="M283.5 43.1 L270.0 66.5 L243.0 66.5 L229.5 43.1 L243.0 19.8 L270.0 19.8 Z" fill="rgb(14,29,77)" fill-opacity="0.19" stroke="rgb(53,103,255)" stroke-opacity="0.45" stroke-width="1.4"/><path d="M283.5 89.9 L270.0 113.3 L243.0 113.3 L229.5 89.9 L243.0 66.5 L270.0 66.5 Z" fill="rgb(39,69,147)" fill-opacity="0.36" stroke="rgb(110,155,255)" stroke-opacity="0.65" stroke-width="1.4"/><circle cx="256.5" cy="89.9" r="3.0" fill="rgb(131,176,255)" fill-opacity="0.76"/><path d="M283.5 136.7 L270.0 160.1 L243.0 160.1 L229.5 136.7 L243.0 113.3 L270.0 113.3 Z" fill="rgb(58,99,201)" fill-opacity="0.49" stroke="rgb(137,179,255)" stroke-opacity="0.74" stroke-width="1.4"/><circle cx="256.5" cy="136.7" r="3.4" fill="rgb(147,189,255)" fill-opacity="0.87"/><path d="M324.0 -27.0 L310.5 -3.6 L283.5 -3.6 L270.0 -27.0 L283.5 -50.4 L310.5 -50.4 Z" fill="rgb(18,35,87)" fill-opacity="0.22" stroke="rgb(65,114,255)" stroke-opacity="0.50" stroke-width="1.4"/><path d="M324.0 19.8 L310.5 43.1 L283.5 43.1 L270.0 19.8 L283.5 -3.6 L310.5 -3.6 Z" fill="rgb(16,33,83)" fill-opacity="0.21" stroke="rgb(60,110,255)" stroke-opacity="0.48" stroke-width="1.4"/><path d="M324.0 66.5 L310.5 89.9 L283.5 89.9 L270.0 66.5 L283.5 43.1 L310.5 43.1 Z" fill="rgb(11,24,67)" fill-opacity="0.17" stroke="rgb(34,86,255)" stroke-opacity="0.39" stroke-width="1.4"/><path d="M324.0 113.3 L310.5 136.7 L283.5 136.7 L270.0 113.3 L283.5 89.9 L310.5 89.9 Z" fill="rgb(31,55,123)" fill-opacity="0.30" stroke="rgb(95,141,255)" stroke-opacity="0.60" stroke-width="1.4"/><circle cx="297.0" cy="113.3" r="2.7" fill="rgb(123,169,255)" fill-opacity="0.71"/><path d="M324.0 160.1 L310.5 183.4 L283.5 183.4 L270.0 160.1 L283.5 136.7 L310.5 136.7 Z" fill="rgb(63,107,215)" fill-opacity="0.53" stroke="rgb(144,185,255)" stroke-opacity="0.77" stroke-width="1.4"/><circle cx="297.0" cy="160.1" r="3.5" fill="rgb(150,192,255)" fill-opacity="0.89"/><path d="M364.5 -3.6 L351.0 19.8 L324.0 19.8 L310.5 -3.6 L324.0 -27.0 L351.0 -27.0 Z" fill="rgb(46,80,167)" fill-opacity="0.41" stroke="rgb(121,164,255)" stroke-opacity="0.69" stroke-width="1.4"/><circle cx="337.5" cy="-3.6" r="3.2" fill="rgb(137,181,255)" fill-opacity="0.80"/><path d="M364.5 43.1 L351.0 66.5 L324.0 66.5 L310.5 43.1 L324.0 19.8 L351.0 19.8 Z" fill="rgb(14,29,77)" fill-opacity="0.19" stroke="rgb(53,103,255)" stroke-opacity="0.45" stroke-width="1.4"/><path d="M364.5 89.9 L351.0 113.3 L324.0 113.3 L310.5 89.9 L324.0 66.5 L351.0 66.5 Z" fill="rgb(14,29,77)" fill-opacity="0.19" stroke="rgb(52,102,255)" stroke-opacity="0.45" stroke-width="1.4"/><path d="M364.5 136.7 L351.0 160.1 L324.0 160.1 L310.5 136.7 L324.0 113.3 L351.0 113.3 Z" fill="rgb(31,56,125)" fill-opacity="0.31" stroke="rgb(96,142,255)" stroke-opacity="0.60" stroke-width="1.4"/><circle cx="337.5" cy="136.7" r="2.8" fill="rgb(124,169,255)" fill-opacity="0.71"/><path d="M405.0 -27.0 L391.5 -3.6 L364.5 -3.6 L351.0 -27.0 L364.5 -50.4 L391.5 -50.4 Z" fill="rgb(57,98,198)" fill-opacity="0.48" stroke="rgb(136,178,255)" stroke-opacity="0.74" stroke-width="1.4"/><circle cx="378.0" cy="-27.0" r="3.4" fill="rgb(146,188,255)" fill-opacity="0.86"/><path d="M405.0 19.8 L391.5 43.1 L364.5 43.1 L351.0 19.8 L364.5 -3.6 L391.5 -3.6 Z" fill="rgb(40,71,151)" fill-opacity="0.37" stroke="rgb(112,157,255)" stroke-opacity="0.66" stroke-width="1.4"/><circle cx="378.0" cy="19.8" r="3.0" fill="rgb(133,177,255)" fill-opacity="0.77"/><path d="M405.0 66.5 L391.5 89.9 L364.5 89.9 L351.0 66.5 L364.5 43.1 L391.5 43.1 Z" fill="rgb(15,31,80)" fill-opacity="0.20" stroke="rgb(57,107,255)" stroke-opacity="0.47" stroke-width="1.4"/><path d="M405.0 113.3 L391.5 136.7 L364.5 136.7 L351.0 113.3 L364.5 89.9 L391.5 89.9 Z" fill="rgb(10,22,64)" fill-opacity="0.16" stroke="rgb(24,77,255)" stroke-opacity="0.36" stroke-width="1.4"/><path d="M405.0 160.1 L391.5 183.4 L364.5 183.4 L351.0 160.1 L364.5 136.7 L391.5 136.7 Z" fill="rgb(15,30,79)" fill-opacity="0.20" stroke="rgb(54,105,255)" stroke-opacity="0.46" stroke-width="1.4"/><path d="M445.5 -3.6 L432.0 19.8 L405.0 19.8 L391.5 -3.6 L405.0 -27.0 L432.0 -27.0 Z" fill="rgb(34,60,132)" fill-opacity="0.33" stroke="rgb(101,147,255)" stroke-opacity="0.62" stroke-width="1.4"/><circle cx="418.5" cy="-3.6" r="2.8" fill="rgb(126,172,255)" fill-opacity="0.73"/><path d="M445.5 43.1 L432.0 66.5 L405.0 66.5 L391.5 43.1 L405.0 19.8 L432.0 19.8 Z" fill="rgb(59,101,204)" fill-opacity="0.50" stroke="rgb(139,181,255)" stroke-opacity="0.75" stroke-width="1.4"/><circle cx="418.5" cy="43.1" r="3.5" fill="rgb(148,190,255)" fill-opacity="0.87"/><path d="M445.5 89.9 L432.0 113.3 L405.0 113.3 L391.5 89.9 L405.0 66.5 L432.0 66.5 Z" fill="rgb(14,29,77)" fill-opacity="0.19" stroke="rgb(53,103,255)" stroke-opacity="0.46" stroke-width="1.4"/><path d="M445.5 136.7 L432.0 160.1 L405.0 160.1 L391.5 136.7 L405.0 113.3 L432.0 113.3 Z" fill="rgb(10,22,65)" fill-opacity="0.16" stroke="rgb(24,77,255)" stroke-opacity="0.36" stroke-width="1.4"/><path d="M486.0 -27.0 L472.5 -3.6 L445.5 -3.6 L432.0 -27.0 L445.5 -50.4 L472.5 -50.4 Z" fill="rgb(27,50,114)" fill-opacity="0.28" stroke="rgb(89,135,255)" stroke-opacity="0.58" stroke-width="1.4"/><circle cx="459.0" cy="-27.0" r="2.6" fill="rgb(119,166,255)" fill-opacity="0.68"/><path d="M486.0 19.8 L472.5 43.1 L445.5 43.1 L432.0 19.8 L445.5 -3.6 L472.5 -3.6 Z" fill="rgb(10,22,65)" fill-opacity="0.16" stroke="rgb(25,78,255)" stroke-opacity="0.36" stroke-width="1.4"/><path d="M486.0 66.5 L472.5 89.9 L445.5 89.9 L432.0 66.5 L445.5 43.1 L472.5 43.1 Z" fill="rgb(65,111,221)" fill-opacity="0.54" stroke="rgb(146,188,255)" stroke-opacity="0.77" stroke-width="1.4"/><circle cx="459.0" cy="66.5" r="3.6" fill="rgb(152,193,255)" fill-opacity="0.90"/><path d="M486.0 113.3 L472.5 136.7 L445.5 136.7 L432.0 113.3 L445.5 89.9 L472.5 89.9 Z" fill="rgb(33,59,130)" fill-opacity="0.32" stroke="rgb(100,145,255)" stroke-opacity="0.61" stroke-width="1.4"/><circle cx="459.0" cy="113.3" r="2.8" fill="rgb(125,171,255)" fill-opacity="0.72"/><path d="M486.0 160.1 L472.5 183.4 L445.5 183.4 L432.0 160.1 L445.5 136.7 L472.5 136.7 Z" fill="rgb(22,42,99)" fill-opacity="0.25" stroke="rgb(77,125,255)" stroke-opacity="0.54" stroke-width="1.4"/><path d="M526.5 -3.6 L513.0 19.8 L486.0 19.8 L472.5 -3.6 L486.0 -27.0 L513.0 -27.0 Z" fill="rgb(74,126,249)" fill-opacity="0.61" stroke="rgb(157,197,255)" stroke-opacity="0.81" stroke-width="1.4"/><circle cx="499.5" cy="-3.6" r="3.8" fill="rgb(158,198,255)" fill-opacity="0.94"/><path d="M526.5 43.1 L513.0 66.5 L486.0 66.5 L472.5 43.1 L486.0 19.8 L513.0 19.8 Z" fill="rgb(25,46,107)" fill-opacity="0.26" stroke="rgb(83,131,255)" stroke-opacity="0.56" stroke-width="1.4"/><circle cx="499.5" cy="43.1" r="2.5" fill="rgb(116,163,255)" fill-opacity="0.66"/><path d="M526.5 89.9 L513.0 113.3 L486.0 113.3 L472.5 89.9 L486.0 66.5 L513.0 66.5 Z" fill="rgb(13,27,73)" fill-opacity="0.18" stroke="rgb(46,97,255)" stroke-opacity="0.43" stroke-width="1.4"/><path d="M526.5 136.7 L513.0 160.1 L486.0 160.1 L472.5 136.7 L486.0 113.3 L513.0 113.3 Z" fill="rgb(13,27,74)" fill-opacity="0.19" stroke="rgb(48,98,255)" stroke-opacity="0.44" stroke-width="1.4"/><path d="M567.0 -27.0 L553.5 -3.6 L526.5 -3.6 L513.0 -27.0 L526.5 -50.4 L553.5 -50.4 Z" fill="rgb(52,89,183)" fill-opacity="0.45" stroke="rgb(129,172,255)" stroke-opacity="0.72" stroke-width="1.4"/><circle cx="540.0" cy="-27.0" r="3.3" fill="rgb(142,185,255)" fill-opacity="0.84"/><path d="M567.0 19.8 L553.5 43.1 L526.5 43.1 L513.0 19.8 L526.5 -3.6 L553.5 -3.6 Z" fill="rgb(17,33,84)" fill-opacity="0.21" stroke="rgb(62,111,255)" stroke-opacity="0.49" stroke-width="1.4"/><path d="M567.0 66.5 L553.5 89.9 L526.5 89.9 L513.0 66.5 L526.5 43.1 L553.5 43.1 Z" fill="rgb(69,118,233)" fill-opacity="0.57" stroke="rgb(151,192,255)" stroke-opacity="0.79" stroke-width="1.4"/><circle cx="540.0" cy="66.5" r="3.7" fill="rgb(155,196,255)" fill-opacity="0.92"/><path d="M567.0 113.3 L553.5 136.7 L526.5 136.7 L513.0 113.3 L526.5 89.9 L553.5 89.9 Z" fill="rgb(58,99,201)" fill-opacity="0.49" stroke="rgb(137,180,255)" stroke-opacity="0.74" stroke-width="1.4"/><circle cx="540.0" cy="113.3" r="3.4" fill="rgb(147,189,255)" fill-opacity="0.87"/><path d="M567.0 160.1 L553.5 183.4 L526.5 183.4 L513.0 160.1 L526.5 136.7 L553.5 136.7 Z" fill="rgb(28,51,116)" fill-opacity="0.29" stroke="rgb(90,136,255)" stroke-opacity="0.58" stroke-width="1.4"/><circle cx="540.0" cy="160.1" r="2.7" fill="rgb(120,166,255)" fill-opacity="0.69"/><path d="M607.5 -3.6 L594.0 19.8 L567.0 19.8 L553.5 -3.6 L567.0 -27.0 L594.0 -27.0 Z" fill="rgb(39,69,147)" fill-opacity="0.36" stroke="rgb(110,155,255)" stroke-opacity="0.65" stroke-width="1.4"/><circle cx="580.5" cy="-3.6" r="3.0" fill="rgb(131,176,255)" fill-opacity="0.76"/><path d="M607.5 43.1 L594.0 66.5 L567.0 66.5 L553.5 43.1 L567.0 19.8 L594.0 19.8 Z" fill="rgb(23,43,102)" fill-opacity="0.25" stroke="rgb(79,127,255)" stroke-opacity="0.54" stroke-width="1.4"/><path d="M607.5 89.9 L594.0 113.3 L567.0 113.3 L553.5 89.9 L567.0 66.5 L594.0 66.5 Z" fill="rgb(39,70,149)" fill-opacity="0.37" stroke="rgb(111,156,255)" stroke-opacity="0.65" stroke-width="1.4"/><circle cx="580.5" cy="89.9" r="3.0" fill="rgb(132,176,255)" fill-opacity="0.77"/><path d="M607.5 136.7 L594.0 160.1 L567.0 160.1 L553.5 136.7 L567.0 113.3 L594.0 113.3 Z" fill="rgb(19,37,91)" fill-opacity="0.23" stroke="rgb(69,118,255)" stroke-opacity="0.51" stroke-width="1.4"/><path d="M648.0 -27.0 L634.5 -3.6 L607.5 -3.6 L594.0 -27.0 L607.5 -50.4 L634.5 -50.4 Z" fill="rgb(21,40,96)" fill-opacity="0.24" stroke="rgb(73,122,255)" stroke-opacity="0.53" stroke-width="1.4"/><path d="M648.0 19.8 L634.5 43.1 L607.5 43.1 L594.0 19.8 L607.5 -3.6 L634.5 -3.6 Z" fill="rgb(11,24,68)" fill-opacity="0.17" stroke="rgb(36,88,255)" stroke-opacity="0.40" stroke-width="1.4"/><path d="M648.0 66.5 L634.5 89.9 L607.5 89.9 L594.0 66.5 L607.5 43.1 L634.5 43.1 Z" fill="rgb(75,127,250)" fill-opacity="0.61" stroke="rgb(158,198,255)" stroke-opacity="0.81" stroke-width="1.4"/><circle cx="621.0" cy="66.5" r="3.8" fill="rgb(158,199,255)" fill-opacity="0.94"/><path d="M648.0 113.3 L634.5 136.7 L607.5 136.7 L594.0 113.3 L607.5 89.9 L634.5 89.9 Z" fill="rgb(65,111,222)" fill-opacity="0.54" stroke="rgb(146,188,255)" stroke-opacity="0.77" stroke-width="1.4"/><circle cx="621.0" cy="113.3" r="3.6" fill="rgb(152,193,255)" fill-opacity="0.90"/><path d="M648.0 160.1 L634.5 183.4 L607.5 183.4 L594.0 160.1 L607.5 136.7 L634.5 136.7 Z" fill="rgb(45,79,165)" fill-opacity="0.40" stroke="rgb(120,164,255)" stroke-opacity="0.68" stroke-width="1.4"/><circle cx="621.0" cy="160.1" r="3.1" fill="rgb(137,180,255)" fill-opacity="0.80"/><path d="M688.5 -3.6 L675.0 19.8 L648.0 19.8 L634.5 -3.6 L648.0 -27.0 L675.0 -27.0 Z" fill="rgb(45,79,165)" fill-opacity="0.40" stroke="rgb(120,164,255)" stroke-opacity="0.68" stroke-width="1.4"/><circle cx="661.5" cy="-3.6" r="3.1" fill="rgb(137,180,255)" fill-opacity="0.80"/><path d="M688.5 43.1 L675.0 66.5 L648.0 66.5 L634.5 43.1 L648.0 19.8 L675.0 19.8 Z" fill="rgb(59,102,205)" fill-opacity="0.50" stroke="rgb(139,181,255)" stroke-opacity="0.75" stroke-width="1.4"/><circle cx="661.5" cy="43.1" r="3.5" fill="rgb(148,190,255)" fill-opacity="0.87"/><path d="M688.5 89.9 L675.0 113.3 L648.0 113.3 L634.5 89.9 L648.0 66.5 L675.0 66.5 Z" fill="rgb(16,33,83)" fill-opacity="0.21" stroke="rgb(60,110,255)" stroke-opacity="0.48" stroke-width="1.4"/><path d="M688.5 136.7 L675.0 160.1 L648.0 160.1 L634.5 136.7 L648.0 113.3 L675.0 113.3 Z" fill="rgb(10,22,64)" fill-opacity="0.16" stroke="rgb(20,73,255)" stroke-opacity="0.34" stroke-width="1.4"/><path d="M729.0 -27.0 L715.5 -3.6 L688.5 -3.6 L675.0 -27.0 L688.5 -50.4 L715.5 -50.4 Z" fill="rgb(19,37,91)" fill-opacity="0.23" stroke="rgb(69,117,255)" stroke-opacity="0.51" stroke-width="1.4"/><path d="M729.0 19.8 L715.5 43.1 L688.5 43.1 L675.0 19.8 L688.5 -3.6 L715.5 -3.6 Z" fill="rgb(12,25,70)" fill-opacity="0.18" stroke="rgb(41,93,255)" stroke-opacity="0.42" stroke-width="1.4"/><path d="M729.0 66.5 L715.5 89.9 L688.5 89.9 L675.0 66.5 L688.5 43.1 L715.5 43.1 Z" fill="rgb(10,22,64)" fill-opacity="0.16" stroke="rgb(20,74,255)" stroke-opacity="0.34" stroke-width="1.4"/><path d="M729.0 113.3 L715.5 136.7 L688.5 136.7 L675.0 113.3 L688.5 89.9 L715.5 89.9 Z" fill="rgb(19,37,91)" fill-opacity="0.23" stroke="rgb(69,117,255)" stroke-opacity="0.51" stroke-width="1.4"/><path d="M729.0 160.1 L715.5 183.4 L688.5 183.4 L675.0 160.1 L688.5 136.7 L715.5 136.7 Z" fill="rgb(36,64,138)" fill-opacity="0.34" stroke="rgb(105,150,255)" stroke-opacity="0.63" stroke-width="1.4"/><circle cx="702.0" cy="160.1" r="2.9" fill="rgb(128,173,255)" fill-opacity="0.74"/><path d="M769.5 -3.6 L756.0 19.8 L729.0 19.8 L715.5 -3.6 L729.0 -27.0 L756.0 -27.0 Z" fill="rgb(20,38,93)" fill-opacity="0.23" stroke="rgb(71,119,255)" stroke-opacity="0.52" stroke-width="1.4"/><path d="M769.5 43.1 L756.0 66.5 L729.0 66.5 L715.5 43.1 L729.0 19.8 L756.0 19.8 Z" fill="rgb(69,117,232)" fill-opacity="0.57" stroke="rgb(151,192,255)" stroke-opacity="0.79" stroke-width="1.4"/><circle cx="742.5" cy="43.1" r="3.7" fill="rgb(154,195,255)" fill-opacity="0.92"/><path d="M769.5 89.9 L756.0 113.3 L729.0 113.3 L715.5 89.9 L729.0 66.5 L756.0 66.5 Z" fill="rgb(73,124,245)" fill-opacity="0.60" stroke="rgb(156,196,255)" stroke-opacity="0.81" stroke-width="1.4"/><circle cx="742.5" cy="89.9" r="3.7" fill="rgb(157,198,255)" fill-opacity="0.94"/><path d="M769.5 136.7 L756.0 160.1 L729.0 160.1 L715.5 136.7 L729.0 113.3 L756.0 113.3 Z" fill="rgb(51,89,183)" fill-opacity="0.45" stroke="rgb(129,172,255)" stroke-opacity="0.71" stroke-width="1.4"/><circle cx="742.5" cy="136.7" r="3.3" fill="rgb(142,185,255)" fill-opacity="0.83"/><path d="M810.0 -27.0 L796.5 -3.6 L769.5 -3.6 L756.0 -27.0 L769.5 -50.4 L796.5 -50.4 Z" fill="rgb(27,49,113)" fill-opacity="0.28" stroke="rgb(88,134,255)" stroke-opacity="0.57" stroke-width="1.4"/><circle cx="783.0" cy="-27.0" r="2.6" fill="rgb(119,165,255)" fill-opacity="0.68"/><path d="M810.0 19.8 L796.5 43.1 L769.5 43.1 L756.0 19.8 L769.5 -3.6 L796.5 -3.6 Z" fill="rgb(10,22,64)" fill-opacity="0.16" stroke="rgb(24,77,255)" stroke-opacity="0.36" stroke-width="1.4"/><path d="M810.0 66.5 L796.5 89.9 L769.5 89.9 L756.0 66.5 L769.5 43.1 L796.5 43.1 Z" fill="rgb(56,96,196)" fill-opacity="0.48" stroke="rgb(135,177,255)" stroke-opacity="0.74" stroke-width="1.4"/><circle cx="783.0" cy="66.5" r="3.4" fill="rgb(146,188,255)" fill-opacity="0.86"/><path d="M810.0 113.3 L796.5 136.7 L769.5 136.7 L756.0 113.3 L769.5 89.9 L796.5 89.9 Z" fill="rgb(62,106,214)" fill-opacity="0.52" stroke="rgb(143,184,255)" stroke-opacity="0.76" stroke-width="1.4"/><circle cx="783.0" cy="113.3" r="3.5" fill="rgb(150,192,255)" fill-opacity="0.89"/><path d="M810.0 160.1 L796.5 183.4 L769.5 183.4 L756.0 160.1 L769.5 136.7 L796.5 136.7 Z" fill="rgb(10,22,64)" fill-opacity="0.16" stroke="rgb(23,76,255)" stroke-opacity="0.35" stroke-width="1.4"/><path d="M850.5 -3.6 L837.0 19.8 L810.0 19.8 L796.5 -3.6 L810.0 -27.0 L837.0 -27.0 Z" fill="rgb(38,68,146)" fill-opacity="0.36" stroke="rgb(110,154,255)" stroke-opacity="0.65" stroke-width="1.4"/><circle cx="823.5" cy="-3.6" r="3.0" fill="rgb(131,176,255)" fill-opacity="0.76"/><path d="M850.5 43.1 L837.0 66.5 L810.0 66.5 L796.5 43.1 L810.0 19.8 L837.0 19.8 Z" fill="rgb(13,28,75)" fill-opacity="0.19" stroke="rgb(49,99,255)" stroke-opacity="0.44" stroke-width="1.4"/><path d="M850.5 89.9 L837.0 113.3 L810.0 113.3 L796.5 89.9 L810.0 66.5 L837.0 66.5 Z" fill="rgb(11,24,68)" fill-opacity="0.17" stroke="rgb(36,88,255)" stroke-opacity="0.40" stroke-width="1.4"/><path d="M850.5 136.7 L837.0 160.1 L810.0 160.1 L796.5 136.7 L810.0 113.3 L837.0 113.3 Z" fill="rgb(32,59,129)" fill-opacity="0.32" stroke="rgb(99,145,255)" stroke-opacity="0.61" stroke-width="1.4"/><circle cx="823.5" cy="136.7" r="2.8" fill="rgb(125,171,255)" fill-opacity="0.72"/><path d="M891.0 -27.0 L877.5 -3.6 L850.5 -3.6 L837.0 -27.0 L850.5 -50.4 L877.5 -50.4 Z" fill="rgb(10,22,64)" fill-opacity="0.16" stroke="rgb(15,69,255)" stroke-opacity="0.33" stroke-width="1.4"/><path d="M891.0 19.8 L877.5 43.1 L850.5 43.1 L837.0 19.8 L850.5 -3.6 L877.5 -3.6 Z" fill="rgb(68,117,232)" fill-opacity="0.56" stroke="rgb(150,191,255)" stroke-opacity="0.79" stroke-width="1.4"/><circle cx="864.0" cy="19.8" r="3.7" fill="rgb(154,195,255)" fill-opacity="0.92"/><path d="M891.0 66.5 L877.5 89.9 L850.5 89.9 L837.0 66.5 L850.5 43.1 L877.5 43.1 Z" fill="rgb(71,120,238)" fill-opacity="0.58" stroke="rgb(153,194,255)" stroke-opacity="0.80" stroke-width="1.4"/><circle cx="864.0" cy="66.5" r="3.7" fill="rgb(156,196,255)" fill-opacity="0.93"/><path d="M891.0 113.3 L877.5 136.7 L850.5 136.7 L837.0 113.3 L850.5 89.9 L877.5 89.9 Z" fill="rgb(10,22,64)" fill-opacity="0.16" stroke="rgb(14,68,255)" stroke-opacity="0.32" stroke-width="1.4"/><path d="M891.0 160.1 L877.5 183.4 L850.5 183.4 L837.0 160.1 L850.5 136.7 L877.5 136.7 Z" fill="rgb(10,22,64)" fill-opacity="0.16" stroke="rgb(22,75,255)" stroke-opacity="0.35" stroke-width="1.4"/><path d="M931.5 -3.6 L918.0 19.8 L891.0 19.8 L877.5 -3.6 L891.0 -27.0 L918.0 -27.0 Z" fill="rgb(68,116,231)" fill-opacity="0.56" stroke="rgb(150,191,255)" stroke-opacity="0.79" stroke-width="1.4"/><circle cx="904.5" cy="-3.6" r="3.7" fill="rgb(154,195,255)" fill-opacity="0.92"/><path d="M931.5 43.1 L918.0 66.5 L891.0 66.5 L877.5 43.1 L891.0 19.8 L918.0 19.8 Z" fill="rgb(14,28,75)" fill-opacity="0.19" stroke="rgb(50,100,255)" stroke-opacity="0.44" stroke-width="1.4"/><path d="M931.5 89.9 L918.0 113.3 L891.0 113.3 L877.5 89.9 L891.0 66.5 L918.0 66.5 Z" fill="rgb(68,115,230)" fill-opacity="0.56" stroke="rgb(150,191,255)" stroke-opacity="0.79" stroke-width="1.4"/><circle cx="904.5" cy="89.9" r="3.6" fill="rgb(154,195,255)" fill-opacity="0.91"/><path d="M931.5 136.7 L918.0 160.1 L891.0 160.1 L877.5 136.7 L891.0 113.3 L918.0 113.3 Z" fill="rgb(16,32,83)" fill-opacity="0.21" stroke="rgb(60,109,255)" stroke-opacity="0.48" stroke-width="1.4"/><path d="M972.0 -27.0 L958.5 -3.6 L931.5 -3.6 L918.0 -27.0 L931.5 -50.4 L958.5 -50.4 Z" fill="rgb(38,68,145)" fill-opacity="0.36" stroke="rgb(109,154,255)" stroke-opacity="0.65" stroke-width="1.4"/><circle cx="945.0" cy="-27.0" r="3.0" fill="rgb(131,175,255)" fill-opacity="0.76"/><path d="M972.0 19.8 L958.5 43.1 L931.5 43.1 L918.0 19.8 L931.5 -3.6 L958.5 -3.6 Z" fill="rgb(17,34,85)" fill-opacity="0.21" stroke="rgb(63,112,255)" stroke-opacity="0.49" stroke-width="1.4"/><path d="M972.0 66.5 L958.5 89.9 L931.5 89.9 L918.0 66.5 L931.5 43.1 L958.5 43.1 Z" fill="rgb(10,22,64)" fill-opacity="0.16" stroke="rgb(23,76,255)" stroke-opacity="0.35" stroke-width="1.4"/><path d="M972.0 113.3 L958.5 136.7 L931.5 136.7 L918.0 113.3 L931.5 89.9 L958.5 89.9 Z" fill="rgb(60,103,207)" fill-opacity="0.51" stroke="rgb(140,182,255)" stroke-opacity="0.75" stroke-width="1.4"/><circle cx="945.0" cy="113.3" r="3.5" fill="rgb(148,190,255)" fill-opacity="0.88"/><path d="M972.0 160.1 L958.5 183.4 L931.5 183.4 L918.0 160.1 L931.5 136.7 L958.5 136.7 Z" fill="rgb(21,39,95)" fill-opacity="0.24" stroke="rgb(73,121,255)" stroke-opacity="0.52" stroke-width="1.4"/><path d="M1012.5 -3.6 L999.0 19.8 L972.0 19.8 L958.5 -3.6 L972.0 -27.0 L999.0 -27.0 Z" fill="rgb(11,25,69)" fill-opacity="0.17" stroke="rgb(39,90,255)" stroke-opacity="0.41" stroke-width="1.4"/><path d="M1012.5 43.1 L999.0 66.5 L972.0 66.5 L958.5 43.1 L972.0 19.8 L999.0 19.8 Z" fill="rgb(30,54,121)" fill-opacity="0.30" stroke="rgb(94,140,255)" stroke-opacity="0.59" stroke-width="1.4"/><circle cx="985.5" cy="43.1" r="2.7" fill="rgb(122,168,255)" fill-opacity="0.70"/><path d="M1012.5 89.9 L999.0 113.3 L972.0 113.3 L958.5 89.9 L972.0 66.5 L999.0 66.5 Z" fill="rgb(14,28,75)" fill-opacity="0.19" stroke="rgb(50,100,255)" stroke-opacity="0.44" stroke-width="1.4"/><path d="M1012.5 136.7 L999.0 160.1 L972.0 160.1 L958.5 136.7 L972.0 113.3 L999.0 113.3 Z" fill="rgb(63,108,217)" fill-opacity="0.53" stroke="rgb(145,186,255)" stroke-opacity="0.77" stroke-width="1.4"/><circle cx="985.5" cy="136.7" r="3.6" fill="rgb(151,192,255)" fill-opacity="0.89"/><path d="M1053.0 -27.0 L1039.5 -3.6 L1012.5 -3.6 L999.0 -27.0 L1012.5 -50.4 L1039.5 -50.4 Z" fill="rgb(57,98,199)" fill-opacity="0.49" stroke="rgb(136,179,255)" stroke-opacity="0.74" stroke-width="1.4"/><circle cx="1026.0" cy="-27.0" r="3.4" fill="rgb(146,188,255)" fill-opacity="0.86"/><path d="M1053.0 19.8 L1039.5 43.1 L1012.5 43.1 L999.0 19.8 L1012.5 -3.6 L1039.5 -3.6 Z" fill="rgb(43,76,159)" fill-opacity="0.39" stroke="rgb(117,161,255)" stroke-opacity="0.67" stroke-width="1.4"/><circle cx="1026.0" cy="19.8" r="3.1" fill="rgb(135,179,255)" fill-opacity="0.79"/><path d="M1053.0 66.5 L1039.5 89.9 L1012.5 89.9 L999.0 66.5 L1012.5 43.1 L1039.5 43.1 Z" fill="rgb(49,86,177)" fill-opacity="0.43" stroke="rgb(126,169,255)" stroke-opacity="0.71" stroke-width="1.4"/><circle cx="1026.0" cy="66.5" r="3.3" fill="rgb(141,184,255)" fill-opacity="0.82"/><path d="M1053.0 113.3 L1039.5 136.7 L1012.5 136.7 L999.0 113.3 L1012.5 89.9 L1039.5 89.9 Z" fill="rgb(49,85,175)" fill-opacity="0.43" stroke="rgb(125,168,255)" stroke-opacity="0.70" stroke-width="1.4"/><circle cx="1026.0" cy="113.3" r="3.2" fill="rgb(140,183,255)" fill-opacity="0.82"/><path d="M1053.0 160.1 L1039.5 183.4 L1012.5 183.4 L999.0 160.1 L1012.5 136.7 L1039.5 136.7 Z" fill="rgb(29,53,119)" fill-opacity="0.29" stroke="rgb(92,139,255)" stroke-opacity="0.59" stroke-width="1.4"/><circle cx="1026.0" cy="160.1" r="2.7" fill="rgb(121,167,255)" fill-opacity="0.70"/><path d="M1093.5 -3.6 L1080.0 19.8 L1053.0 19.8 L1039.5 -3.6 L1053.0 -27.0 L1080.0 -27.0 Z" fill="rgb(69,118,234)" fill-opacity="0.57" stroke="rgb(151,192,255)" stroke-opacity="0.79" stroke-width="1.4"/><circle cx="1066.5" cy="-3.6" r="3.7" fill="rgb(155,196,255)" fill-opacity="0.92"/><path d="M1093.5 43.1 L1080.0 66.5 L1053.0 66.5 L1039.5 43.1 L1053.0 19.8 L1080.0 19.8 Z" fill="rgb(12,25,69)" fill-opacity="0.17" stroke="rgb(39,91,255)" stroke-opacity="0.41" stroke-width="1.4"/><path d="M1093.5 89.9 L1080.0 113.3 L1053.0 113.3 L1039.5 89.9 L1053.0 66.5 L1080.0 66.5 Z" fill="rgb(51,88,181)" fill-opacity="0.44" stroke="rgb(128,171,255)" stroke-opacity="0.71" stroke-width="1.4"/><circle cx="1066.5" cy="89.9" r="3.3" fill="rgb(141,184,255)" fill-opacity="0.83"/><path d="M1093.5 136.7 L1080.0 160.1 L1053.0 160.1 L1039.5 136.7 L1053.0 113.3 L1080.0 113.3 Z" fill="rgb(43,75,159)" fill-opacity="0.39" stroke="rgb(117,161,255)" stroke-opacity="0.67" stroke-width="1.4"/><circle cx="1066.5" cy="136.7" r="3.1" fill="rgb(135,179,255)" fill-opacity="0.79"/><path d="M1134.0 -27.0 L1120.5 -3.6 L1093.5 -3.6 L1080.0 -27.0 L1093.5 -50.4 L1120.5 -50.4 Z" fill="rgb(11,24,68)" fill-opacity="0.17" stroke="rgb(36,88,255)" stroke-opacity="0.40" stroke-width="1.4"/><path d="M1134.0 19.8 L1120.5 43.1 L1093.5 43.1 L1080.0 19.8 L1093.5 -3.6 L1120.5 -3.6 Z" fill="rgb(11,24,68)" fill-opacity="0.17" stroke="rgb(37,89,255)" stroke-opacity="0.40" stroke-width="1.4"/><path d="M1134.0 66.5 L1120.5 89.9 L1093.5 89.9 L1080.0 66.5 L1093.5 43.1 L1120.5 43.1 Z" fill="rgb(56,97,196)" fill-opacity="0.48" stroke="rgb(135,178,255)" stroke-opacity="0.74" stroke-width="1.4"/><circle cx="1107.0" cy="66.5" r="3.4" fill="rgb(146,188,255)" fill-opacity="0.86"/><path d="M1134.0 113.3 L1120.5 136.7 L1093.5 136.7 L1080.0 113.3 L1093.5 89.9 L1120.5 89.9 Z" fill="rgb(28,52,117)" fill-opacity="0.29" stroke="rgb(91,138,255)" stroke-opacity="0.59" stroke-width="1.4"/><circle cx="1107.0" cy="113.3" r="2.7" fill="rgb(121,167,255)" fill-opacity="0.69"/><path d="M1134.0 160.1 L1120.5 183.4 L1093.5 183.4 L1080.0 160.1 L1093.5 136.7 L1120.5 136.7 Z" fill="rgb(28,51,115)" fill-opacity="0.28" stroke="rgb(90,136,255)" stroke-opacity="0.58" stroke-width="1.4"/><circle cx="1107.0" cy="160.1" r="2.6" fill="rgb(120,166,255)" fill-opacity="0.69"/><path d="M1174.5 -3.6 L1161.0 19.8 L1134.0 19.8 L1120.5 -3.6 L1134.0 -27.0 L1161.0 -27.0 Z" fill="rgb(43,75,159)" fill-opacity="0.39" stroke="rgb(117,161,255)" stroke-opacity="0.67" stroke-width="1.4"/><circle cx="1147.5" cy="-3.6" r="3.1" fill="rgb(135,179,255)" fill-opacity="0.79"/><path d="M1174.5 43.1 L1161.0 66.5 L1134.0 66.5 L1120.5 43.1 L1134.0 19.8 L1161.0 19.8 Z" fill="rgb(13,27,73)" fill-opacity="0.18" stroke="rgb(46,97,255)" stroke-opacity="0.43" stroke-width="1.4"/><path d="M1174.5 89.9 L1161.0 113.3 L1134.0 113.3 L1120.5 89.9 L1134.0 66.5 L1161.0 66.5 Z" fill="rgb(33,60,131)" fill-opacity="0.32" stroke="rgb(100,146,255)" stroke-opacity="0.62" stroke-width="1.4"/><circle cx="1147.5" cy="89.9" r="2.8" fill="rgb(126,171,255)" fill-opacity="0.73"/><path d="M1174.5 136.7 L1161.0 160.1 L1134.0 160.1 L1120.5 136.7 L1134.0 113.3 L1161.0 113.3 Z" fill="rgb(75,127,251)" fill-opacity="0.61" stroke="rgb(158,198,255)" stroke-opacity="0.82" stroke-width="1.4"/><circle cx="1147.5" cy="136.7" r="3.8" fill="rgb(159,199,255)" fill-opacity="0.94"/><path d="M1215.0 -27.0 L1201.5 -3.6 L1174.5 -3.6 L1161.0 -27.0 L1174.5 -50.4 L1201.5 -50.4 Z" fill="rgb(42,73,155)" fill-opacity="0.38" stroke="rgb(115,159,255)" stroke-opacity="0.67" stroke-width="1.4"/><circle cx="1188.0" cy="-27.0" r="3.1" fill="rgb(134,178,255)" fill-opacity="0.78"/><path d="M1215.0 19.8 L1201.5 43.1 L1174.5 43.1 L1161.0 19.8 L1174.5 -3.6 L1201.5 -3.6 Z" fill="rgb(22,41,98)" fill-opacity="0.24" stroke="rgb(76,124,255)" stroke-opacity="0.53" stroke-width="1.4"/><path d="M1215.0 66.5 L1201.5 89.9 L1174.5 89.9 L1161.0 66.5 L1174.5 43.1 L1201.5 43.1 Z" fill="rgb(55,95,193)" fill-opacity="0.47" stroke="rgb(134,176,255)" stroke-opacity="0.73" stroke-width="1.4"/><circle cx="1188.0" cy="66.5" r="3.4" fill="rgb(145,187,255)" fill-opacity="0.85"/><path d="M1215.0 113.3 L1201.5 136.7 L1174.5 136.7 L1161.0 113.3 L1174.5 89.9 L1201.5 89.9 Z" fill="rgb(17,34,85)" fill-opacity="0.21" stroke="rgb(63,112,255)" stroke-opacity="0.49" stroke-width="1.4"/><path d="M1215.0 160.1 L1201.5 183.4 L1174.5 183.4 L1161.0 160.1 L1174.5 136.7 L1201.5 136.7 Z" fill="rgb(46,80,167)" fill-opacity="0.41" stroke="rgb(121,165,255)" stroke-opacity="0.69" stroke-width="1.4"/><circle cx="1188.0" cy="160.1" r="3.2" fill="rgb(138,181,255)" fill-opacity="0.81"/><path d="M1255.5 -3.6 L1242.0 19.8 L1215.0 19.8 L1201.5 -3.6 L1215.0 -27.0 L1242.0 -27.0 Z" fill="rgb(65,110,221)" fill-opacity="0.54" stroke="rgb(146,187,255)" stroke-opacity="0.77" stroke-width="1.4"/><circle cx="1228.5" cy="-3.6" r="3.6" fill="rgb(152,193,255)" fill-opacity="0.90"/><path d="M1255.5 43.1 L1242.0 66.5 L1215.0 66.5 L1201.5 43.1 L1215.0 19.8 L1242.0 19.8 Z" fill="rgb(24,45,106)" fill-opacity="0.26" stroke="rgb(82,130,255)" stroke-opacity="0.56" stroke-width="1.4"/><circle cx="1228.5" cy="43.1" r="2.5" fill="rgb(116,162,255)" fill-opacity="0.66"/><path d="M1255.5 89.9 L1242.0 113.3 L1215.0 113.3 L1201.5 89.9 L1215.0 66.5 L1242.0 66.5 Z" fill="rgb(10,22,65)" fill-opacity="0.16" stroke="rgb(27,80,255)" stroke-opacity="0.37" stroke-width="1.4"/><path d="M1255.5 136.7 L1242.0 160.1 L1215.0 160.1 L1201.5 136.7 L1215.0 113.3 L1242.0 113.3 Z" fill="rgb(50,87,179)" fill-opacity="0.44" stroke="rgb(127,170,255)" stroke-opacity="0.71" stroke-width="1.4"/><circle cx="1228.5" cy="136.7" r="3.3" fill="rgb(141,184,255)" fill-opacity="0.83"/><path d="M1296.0 -27.0 L1282.5 -3.6 L1255.5 -3.6 L1242.0 -27.0 L1255.5 -50.4 L1282.5 -50.4 Z" fill="rgb(10,22,64)" fill-opacity="0.16" stroke="rgb(16,70,255)" stroke-opacity="0.33" stroke-width="1.4"/><path d="M1296.0 19.8 L1282.5 43.1 L1255.5 43.1 L1242.0 19.8 L1255.5 -3.6 L1282.5 -3.6 Z" fill="rgb(20,39,95)" fill-opacity="0.24" stroke="rgb(73,121,255)" stroke-opacity="0.52" stroke-width="1.4"/><path d="M1296.0 66.5 L1282.5 89.9 L1255.5 89.9 L1242.0 66.5 L1255.5 43.1 L1282.5 43.1 Z" fill="rgb(14,28,75)" fill-opacity="0.19" stroke="rgb(49,100,255)" stroke-opacity="0.44" stroke-width="1.4"/><path d="M1296.0 113.3 L1282.5 136.7 L1255.5 136.7 L1242.0 113.3 L1255.5 89.9 L1282.5 89.9 Z" fill="rgb(17,34,85)" fill-opacity="0.21" stroke="rgb(62,112,255)" stroke-opacity="0.49" stroke-width="1.4"/><path d="M1296.0 160.1 L1282.5 183.4 L1255.5 183.4 L1242.0 160.1 L1255.5 136.7 L1282.5 136.7 Z" fill="rgb(39,69,148)" fill-opacity="0.36" stroke="rgb(111,155,255)" stroke-opacity="0.65" stroke-width="1.4"/><circle cx="1269.0" cy="160.1" r="3.0" fill="rgb(132,176,255)" fill-opacity="0.77"/><path d="M1336.5 -3.6 L1323.0 19.8 L1296.0 19.8 L1282.5 -3.6 L1296.0 -27.0 L1323.0 -27.0 Z" fill="rgb(17,33,85)" fill-opacity="0.21" stroke="rgb(62,111,255)" stroke-opacity="0.49" stroke-width="1.4"/><path d="M1336.5 43.1 L1323.0 66.5 L1296.0 66.5 L1282.5 43.1 L1296.0 19.8 L1323.0 19.8 Z" fill="rgb(74,125,247)" fill-opacity="0.60" stroke="rgb(157,197,255)" stroke-opacity="0.81" stroke-width="1.4"/><circle cx="1309.5" cy="43.1" r="3.8" fill="rgb(158,198,255)" fill-opacity="0.94"/><path d="M1336.5 89.9 L1323.0 113.3 L1296.0 113.3 L1282.5 89.9 L1296.0 66.5 L1323.0 66.5 Z" fill="rgb(65,111,221)" fill-opacity="0.54" stroke="rgb(146,187,255)" stroke-opacity="0.77" stroke-width="1.4"/><circle cx="1309.5" cy="89.9" r="3.6" fill="rgb(152,193,255)" fill-opacity="0.90"/><path d="M1336.5 136.7 L1323.0 160.1 L1296.0 160.1 L1282.5 136.7 L1296.0 113.3 L1323.0 113.3 Z" fill="rgb(50,87,180)" fill-opacity="0.44" stroke="rgb(127,170,255)" stroke-opacity="0.71" stroke-width="1.4"/><circle cx="1309.5" cy="136.7" r="3.3" fill="rgb(141,184,255)" fill-opacity="0.83"/><path d="M1377.0 -27.0 L1363.5 -3.6 L1336.5 -3.6 L1323.0 -27.0 L1336.5 -50.4 L1363.5 -50.4 Z" fill="rgb(14,29,76)" fill-opacity="0.19" stroke="rgb(51,102,255)" stroke-opacity="0.45" stroke-width="1.4"/><path d="M1377.0 19.8 L1363.5 43.1 L1336.5 43.1 L1323.0 19.8 L1336.5 -3.6 L1363.5 -3.6 Z" fill="rgb(20,39,94)" fill-opacity="0.23" stroke="rgb(72,120,255)" stroke-opacity="0.52" stroke-width="1.4"/><path d="M1377.0 66.5 L1363.5 89.9 L1336.5 89.9 L1323.0 66.5 L1336.5 43.1 L1363.5 43.1 Z" fill="rgb(28,52,117)" fill-opacity="0.29" stroke="rgb(91,137,255)" stroke-opacity="0.58" stroke-width="1.4"/><circle cx="1350.0" cy="66.5" r="2.7" fill="rgb(120,167,255)" fill-opacity="0.69"/><path d="M1377.0 113.3 L1363.5 136.7 L1336.5 136.7 L1323.0 113.3 L1336.5 89.9 L1363.5 89.9 Z" fill="rgb(12,25,70)" fill-opacity="0.18" stroke="rgb(41,93,255)" stroke-opacity="0.41" stroke-width="1.4"/><path d="M1377.0 160.1 L1363.5 183.4 L1336.5 183.4 L1323.0 160.1 L1336.5 136.7 L1363.5 136.7 Z" fill="rgb(57,99,200)" fill-opacity="0.49" stroke="rgb(137,179,255)" stroke-opacity="0.74" stroke-width="1.4"/><circle cx="1350.0" cy="160.1" r="3.4" fill="rgb(147,189,255)" fill-opacity="0.87"/><path d="M1417.5 -3.6 L1404.0 19.8 L1377.0 19.8 L1363.5 -3.6 L1377.0 -27.0 L1404.0 -27.0 Z" fill="rgb(25,46,107)" fill-opacity="0.27" stroke="rgb(83,131,255)" stroke-opacity="0.56" stroke-width="1.4"/><circle cx="1390.5" cy="-3.6" r="2.5" fill="rgb(116,163,255)" fill-opacity="0.66"/><path d="M1417.5 43.1 L1404.0 66.5 L1377.0 66.5 L1363.5 43.1 L1377.0 19.8 L1404.0 19.8 Z" fill="rgb(60,104,209)" fill-opacity="0.51" stroke="rgb(141,183,255)" stroke-opacity="0.76" stroke-width="1.4"/><circle cx="1390.5" cy="43.1" r="3.5" fill="rgb(149,191,255)" fill-opacity="0.88"/><path d="M1417.5 89.9 L1404.0 113.3 L1377.0 113.3 L1363.5 89.9 L1377.0 66.5 L1404.0 66.5 Z" fill="rgb(10,22,64)" fill-opacity="0.16" stroke="rgb(15,69,255)" stroke-opacity="0.33" stroke-width="1.4"/><path d="M1417.5 136.7 L1404.0 160.1 L1377.0 160.1 L1363.5 136.7 L1377.0 113.3 L1404.0 113.3 Z" fill="rgb(66,113,225)" fill-opacity="0.55" stroke="rgb(148,189,255)" stroke-opacity="0.78" stroke-width="1.4"/><circle cx="1390.5" cy="136.7" r="3.6" fill="rgb(153,194,255)" fill-opacity="0.91"/><path d="M1458.0 -27.0 L1444.5 -3.6 L1417.5 -3.6 L1404.0 -27.0 L1417.5 -50.4 L1444.5 -50.4 Z" fill="rgb(11,24,68)" fill-opacity="0.17" stroke="rgb(35,87,255)" stroke-opacity="0.39" stroke-width="1.4"/><path d="M1458.0 19.8 L1444.5 43.1 L1417.5 43.1 L1404.0 19.8 L1417.5 -3.6 L1444.5 -3.6 Z" fill="rgb(71,120,238)" fill-opacity="0.58" stroke="rgb(153,194,255)" stroke-opacity="0.80" stroke-width="1.4"/><circle cx="1431.0" cy="19.8" r="3.7" fill="rgb(156,196,255)" fill-opacity="0.93"/><path d="M1458.0 66.5 L1444.5 89.9 L1417.5 89.9 L1404.0 66.5 L1417.5 43.1 L1444.5 43.1 Z" fill="rgb(11,24,67)" fill-opacity="0.17" stroke="rgb(34,86,255)" stroke-opacity="0.39" stroke-width="1.4"/><path d="M1458.0 113.3 L1444.5 136.7 L1417.5 136.7 L1404.0 113.3 L1417.5 89.9 L1444.5 89.9 Z" fill="rgb(56,97,196)" fill-opacity="0.48" stroke="rgb(135,178,255)" stroke-opacity="0.74" stroke-width="1.4"/><circle cx="1431.0" cy="113.3" r="3.4" fill="rgb(146,188,255)" fill-opacity="0.86"/><path d="M1458.0 160.1 L1444.5 183.4 L1417.5 183.4 L1404.0 160.1 L1417.5 136.7 L1444.5 136.7 Z" fill="rgb(55,95,194)" fill-opacity="0.47" stroke="rgb(134,177,255)" stroke-opacity="0.73" stroke-width="1.4"/><circle cx="1431.0" cy="160.1" r="3.4" fill="rgb(145,187,255)" fill-opacity="0.85"/></g></svg>