<svg xmlns="http://www.w3.org/2000/svg" viewBox="0 0 1440 72" role="img" aria-label="The chamber, as a waveform"><defs><filter id="wg" x="-10%" y="-60%" width="120%" height="220%"><feGaussianBlur stdDeviation="1.5" result="b"/><feMerge><feMergeNode in="b"/><feMergeNode in="SourceGraphic"/></feMerge></filter></defs><g fill="#0E44FF" filter="url(#wg)"><rect x="3.0" y="29.1" width="4.0" height="13.8" rx="2"/><rect x="13.0" y="20.0" width="4.0" height="32.0" rx="2"/><rect x="23.0" y="20.8" width="4.0" height="30.4" rx="2"/><rect x="33.0" y="19.3" width="4.0" height="33.5" rx="2"/><rect x="43.0" y="24.6" width="4.0" height="22.8" rx="2"/><rect x="53.0" y="32.9" width="4.0" height="6.1" rx="2"/><rect x="63.0" y="30.0" width="4.0" height="12.0" rx="2"/><rect x="73.0" y="27.9" width="4.0" height="16.2" rx="2"/><rect x="83.0" y="25.8" width="4.0" height="20.5" rx="2"/><rect x="93.0" y="30.7" width="4.0" height="10.5" rx="2"/><rect x="103.0" y="28.9" width="4.0" height="14.1" rx="2"/><rect x="113.0" y="29.3" width="4.0" height="13.5" rx="2"/><rect x="123.0" y="30.6" width="4.0" height="10.8" rx="2"/><rect x="133.0" y="32.2" width="4.0" height="7.6" rx="2"/><rect x="143.0" y="15.9" width="4.0" height="40.2" rx="2"/><rect x="153.0" y="14.8" width="4.0" height="42.5" rx="2"/><rect x="163.0" y="15.6" width="4.0" height="40.8" rx="2"/><rect x="173.0" y="16.2" width="4.0" height="39.6" rx="2"/><rect x="183.0" y="22.1" width="4.0" height="27.8" rx="2"/><rect x="193.0" y="23.6" width="4.0" height="24.9" rx="2"/><rect x="203.0" y="23.2" width="4.0" height="25.6" rx="2"/><rect x="213.0" y="24.1" width="4.0" height="23.8" rx="2"/><rect x="223.0" y="22.0" width="4.0" height="27.9" rx="2"/><rect x="233.0" y="26.8" width="4.0" height="18.4" rx="2"/><rect x="243.0" y="17.8" width="4.0" height="36.3" rx="2"/><rect x="253.0" y="26.4" width="4.0" height="19.3" rx="2"/><rect x="263.0" y="29.9" width="4.0" height="12.3" rx="2"/><rect x="273.0" y="22.1" width="4.0" height="27.9" rx="2"/><rect x="283.0" y="13.7" width="4.0" height="44.7" rx="2"/><rect x="293.0" y="10.9" width="4.0" height="50.1" rx="2"/><rect x="303.0" y="17.9" width="4.0" height="36.1" rx="2"/><rect x="313.0" y="21.2" width="4.0" height="29.5" rx="2"/><rect x="323.0" y="28.8" width="4.0" height="14.5" rx="2"/><rect x="333.0" y="17.6" width="4.0" height="36.9" rx="2"/><rect x="343.0" y="20.6" width="4.0" height="30.7" rx="2"/><rect x="353.0" y="28.6" width="4.0" height="14.7" rx="2"/><rect x="363.0" y="30.3" width="4.0" height="11.5" rx="2"/><rect x="373.0" y="26.6" width="4.0" height="18.9" rx="2"/><rect x="383.0" y="25.8" width="4.0" height="20.4" rx="2"/><rect x="393.0" y="23.2" width="4.0" height="25.6" rx="2"/><rect x="403.0" y="29.3" width="4.0" height="13.4" rx="2"/><rect x="413.0" y="19.6" width="4.0" height="32.8" rx="2"/><rect x="423.0" y="6.5" width="4.0" height="58.9" rx="2"/><rect x="433.0" y="6.3" width="4.0" height="59.4" rx="2"/><rect x="443.0" y="13.4" width="4.0" height="45.2" rx="2"/><rect x="453.0" y="33.0" width="4.0" height="6.1" rx="2"/><rect x="463.0" y="21.7" width="4.0" height="28.6" rx="2"/><rect x="473.0" y="20.8" width="4.0" height="30.3" rx="2"/><rect x="483.0" y="26.5" width="4.0" height="19.0" rx="2"/><rect x="493.0" y="31.8" width="4.0" height="8.3" rx="2"/><rect x="503.0" y="28.4" width="4.0" height="15.3" rx="2"/><rect x="513.0" y="25.4" width="4.0" height="21.2" rx="2"/><rect x="523.0" y="14.8" width="4.0" height="42.4" rx="2"/><rect x="533.0" y="21.1" width="4.0" height="29.8" rx="2"/><rect x="543.0" y="20.7" width="4.0" height="30.6" rx="2"/><rect x="553.0" y="15.2" width="4.0" height="41.6" rx="2"/><rect x="563.0" y="4.0" width="4.0" height="64.0" rx="2"/><rect x="573.0" y="3.9" width="4.0" height="64.2" rx="2"/><rect x="583.0" y="19.5" width="4.0" height="33.0" rx="2"/><rect x="593.0" y="24.8" width="4.0" height="22.4" rx="2"/><rect x="603.0" y="18.6" width="4.0" height="34.8" rx="2"/><rect x="613.0" y="10.2" width="4.0" height="51.5" rx="2"/><rect x="623.0" y="17.0" width="4.0" height="38.0" rx="2"/><rect x="633.0" y="25.3" width="4.0" height="21.3" rx="2"/><rect x="643.0" y="23.6" width="4.0" height="24.8" rx="2"/><rect x="653.0" y="7.3" width="4.0" height="57.3" rx="2"/><rect x="663.0" y="15.8" width="4.0" height="40.5" rx="2"/><rect x="673.0" y="29.0" width="4.0" height="14.0" rx="2"/><rect x="683.0" y="15.4" width="4.0" height="41.2" rx="2"/><rect x="693.0" y="3.0" width="4.0" height="65.9" rx="2"/><rect x="703.0" y="3.8" width="4.0" height="64.3" rx="2"/><rect x="713.0" y="8.0" width="4.0" height="56.1" rx="2"/><rect x="723.0" y="24.8" width="4.0" height="22.4" rx="2"/><rect x="733.0" y="31.2" width="4.0" height="9.6" rx="2"/><rect x="743.0" y="6.2" width="4.0" height="59.7" rx="2"/><rect x="753.0" y="10.2" width="4.0" height="51.6" rx="2"/><rect x="763.0" y="24.5" width="4.0" height="23.0" rx="2"/><rect x="773.0" y="28.9" width="4.0" height="14.2" rx="2"/><rect x="783.0" y="23.9" width="4.0" height="24.2" rx="2"/><rect x="793.0" y="14.6" width="4.0" height="42.8" rx="2"/><rect x="803.0" y="20.4" width="4.0" height="31.2" rx="2"/><rect x="813.0" y="22.4" width="4.0" height="27.3" rx="2"/><rect x="823.0" y="11.9" width="4.0" height="48.2" rx="2"/><rect x="833.0" y="9.0" width="4.0" height="53.9" rx="2"/><rect x="843.0" y="7.6" width="4.0" height="56.8" rx="2"/><rect x="853.0" y="16.4" width="4.0" height="39.2" rx="2"/><rect x="863.0" y="28.8" width="4.0" height="14.4" rx="2"/><rect x="873.0" y="28.3" width="4.0" height="15.5" rx="2"/><rect x="883.0" y="26.7" width="4.0" height="18.5" rx="2"/><rect x="893.0" y="30.2" width="4.0" height="11.7" rx="2"/><rect x="903.0" y="29.4" width="4.0" height="13.3" rx="2"/><rect x="913.0" y="27.6" width="4.0" height="16.8" rx="2"/><rect x="923.0" y="10.1" width="4.0" height="51.7" rx="2"/><rect x="933.0" y="16.2" width="4.0" height="39.7" rx="2"/><rect x="943.0" y="19.9" width="4.0" height="32.1" rx="2"/><rect x="953.0" y="16.0" width="4.0" height="39.9" rx="2"/><rect x="963.0" y="5.5" width="4.0" height="61.1" rx="2"/><rect x="973.0" y="5.7" width="4.0" height="60.7" rx="2"/><rect x="983.0" y="14.8" width="4.0" height="42.4" rx="2"/><rect x="993.0" y="18.9" width="4.0" height="34.2" rx="2"/><rect x="1003.0" y="16.9" width="4.0" height="38.3" rx="2"/><rect x="1013.0" y="10.5" width="4.0" height="51.1" rx="2"/><rect x="1023.0" y="30.7" width="4.0" height="10.6" rx="2"/><rect x="1033.0" y="26.8" width="4.0" height="18.4" rx="2"/><rect x="1043.0" y="31.6" width="4.0" height="8.8" rx="2"/><rect x="1053.0" y="13.4" width="4.0" height="45.1" rx="2"/><rect x="1063.0" y="27.8" width="4.0" height="16.4" rx="2"/><rect x="1073.0" y="27.5" width="4.0" height="17.0" rx="2"/><rect x="1083.0" y="18.8" width="4.0" height="34.3" rx="2"/><rect x="1093.0" y="12.7" width="4.0" height="46.6" rx="2"/><rect x="1103.0" y="13.1" width="4.0" height="45.8" rx="2"/><rect x="1113.0" y="9.2" width="4.0" height="53.7" rx="2"/><rect x="1123.0" y="23.8" width="4.0" height="24.4" rx="2"/><rect x="1133.0" y="25.8" width="4.0" height="20.5" rx="2"/><rect x="1143.0" y="23.3" width="4.0" height="25.5" rx="2"/><rect x="1153.0" y="17.6" width="4.0" height="36.7" rx="2"/><rect x="1163.0" y="32.2" width="4.0" height="7.6" rx="2"/><rect x="1173.0" y="23.7" width="4.0" height="24.5" rx="2"/><rect x="1183.0" y="18.3" width="4.0" height="35.4" rx="2"/><rect x="1193.0" y="16.1" width="4.0" height="39.8" rx="2"/><rect x="1203.0" y="22.2" width="4.0" height="27.5" rx="2"/><rect x="1213.0" y="29.6" width="4.0" height="12.8" rx="2"/><rect x="1223.0" y="24.1" width="4.0" height="23.7" rx="2"/><rect x="1233.0" y="13.0" width="4.0" height="46.0" rx="2"/><rect x="1243.0" y="15.9" width="4.0" height="40.2" rx="2"/><rect x="1253.0" y="22.2" width="4.0" height="27.7" rx="2"/><rect x="1263.0" y="25.4" width="4.0" height="21.2" rx="2"/><rect x="1273.0" y="31.6" width="4.0" height="8.8" rx="2"/><rect x="1283.0" y="19.4" width="4.0" height="33.1" rx="2"/><rect x="1293.0" y="25.8" width="4.0" height="20.3" rx="2"/><rect x="1303.0" y="32.8" width="4.0" height="6.5" rx="2"/><rect x="1313.0" y="28.3" width="4.0" height="15.3" rx="2"/><rect x="1323.0" y="19.2" width="4.0" height="33.6" rx="2"/><rect x="1333.0" y="25.7" width="4.0" height="20.6" rx="2"/><rect x="1343.0" y="28.9" width="4.0" height="14.2" rx="2"/><rect x="1353.0" y="23.3" width="4.0" height="25.4" rx="2"/><rect x="1363.0" y="19.2" width="4.0" height="33.6" rx="2"/><rect x="1373.0" y="18.1" width="4.0" height="35.8" rx="2"/><rect x="1383.0" y="21.5" width="4.0" height="29.1" rx="2"/><rect x="1393.0" y="24.7" width="4.0" height="22.7" rx="2"/><rect x="1403.0" y="30.6" width="4.0" height="10.9" rx="2"/><rect x="1413.0" y="26.7" width="4.0" height="18.5" rx="2"/><rect x="1423.0" y="23.3" width="4.0" height="25.4" rx="2"/><rect x="1433.0" y="32.8" width="4.0" height="6.3" rx="2"/></g></svg>